<?xml version="1.0" standalone="no"?>
<!DOCTYPE svg PUBLIC "-//W3C//DTD SVG 20010904//EN" "http://www.w3.org/TR/2001/REC-SVG-20010904/DTD/svg10.dtd">
<svg version="1.0" xmlns="http://www.w3.org/2000/svg"
    width="100%" height="100%" viewBox="0 0 220.000000 200.000000"
    preserveAspectRatio="xMidYMid meet">

    <g transform="translate(0.000000,200.000000) scale(0.100000,-0.100000)"
        fill="#597A50" stroke="none">
        <path
            d="M925 1786 c-41 -19 -791 -774 -805 -810 -24 -64 -19 -70 393 -484
418 -419 426 -425 491 -398 49 21 71 52 71 102 l0 44 -295 295 -295 295 780 0
c751 0 781 1 811 19 66 40 66 142 0 182 -30 18 -60 19 -811 19 l-780 0 298
298 c263 264 297 301 297 329 0 49 -16 81 -52 103 -38 23 -61 24 -103 6z" />
    </g>
</svg>